<?xml version="1.0" encoding="UTF-8" standalone="no"?>
<svg xmlns="http://www.w3.org/2000/svg" version="1.1" width="48" height="48" viewBox="0 0 48 48" fill="none">
<path d="m 27.87568,37.87578 c 0,0.9182 -0.7071,1.6712 -1.6064,1.7442 l -0.1436,0.0058 h -14.25 c -3.1017,0 -5.6299,-2.456 -5.7458,-5.5294 l -0.0042,-0.2206 v -19.5 c 0,-3.1018 2.4561,-5.62994 5.5295,-5.74585 l 0.2205,-0.00415 h 14.25 c 0.9665,0 1.75,0.7835 1.75,1.75 0,0.9182 -0.7071,1.6712 -1.6064,1.7442 l -0.1436,0.0058 h -14.25 c -1.1908,0 -2.1656,0.9252 -2.2448,2.096 l -0.0052,0.154 v 19.5 c 0,1.1909 0.9252,2.1656 2.096,2.2448 l 0.154,0.0052 h 14.25 c 0.9665,0 1.75,0.7835 1.75,1.75 z m 13.98216,-14.2511 0.0149,0.1489 0.0016,0.1747 -0.01301,0.1545 -0.03227,0.1779 -0.01825,0.069 c -0.05392,0.1953 -0.14287,0.383 -0.26634,0.5535 l -0.09502,0.1195 -0.08628,0.0929 -7.77817,7.7782 c -0.6834,0.6834 -1.7915,0.6834 -2.4749,0 -0.6432,-0.6432 -0.681,-1.6626 -0.1135,-2.35 l 0.1135,-0.1249 4.7936,-4.7931 h -19.278 c -0.9181,0 -1.6712,-0.7071 -1.7442,-1.6065 l -0.0058,-0.1435 c 0,-0.9182 0.7071,-1.6712 1.6065,-1.7442 l 0.1435,-0.0058 h 19.274 l -4.7896,-4.7883 c -0.6432,-0.6433 -0.681,-1.6626 -0.1135,-2.3501 l 0.1135,-0.1248 c 0.6432,-0.6432 1.6626,-0.6811 2.3501,-0.1135 l 0.1248,0.1135 7.75395,7.752 c 0.05807,0.0559 0.11229,0.1157 0.16223,0.1791 l 0.08076,0.1133 c 0.02656,0.0378 0.05067,0.0772 0.07323,0.1177 l 0.0092,0.0188 c 0.09717,0.177 0.16362,0.3732 0.19351,0.5812 z" fill="#212121" />
</svg>