<?xml version="1.0" encoding="UTF-8" standalone="no"?>
<svg
   xmlns:dc="http://purl.org/dc/elements/1.1/"
   xmlns:cc="http://creativecommons.org/ns#"
   xmlns:rdf="http://www.w3.org/1999/02/22-rdf-syntax-ns#"
   xmlns:svg="http://www.w3.org/2000/svg"
   xmlns="http://www.w3.org/2000/svg"
   xmlns:sodipodi="http://sodipodi.sourceforge.net/DTD/sodipodi-0.dtd"
   xmlns:inkscape="http://www.inkscape.org/namespaces/inkscape"
   version="1.1"
   id="svg835"
   sodipodi:docname="logo.svg"
   width="64"
   height="64"
   inkscape:version="1.0.1 (3bc2e813f5, 2020-09-07)">
  <metadata
     id="metadata841">
    <rdf:RDF>
      <cc:Work
         rdf:about="">
        <dc:format>image/svg+xml</dc:format>
        <dc:type
           rdf:resource="http://purl.org/dc/dcmitype/StillImage" />
        <dc:title></dc:title>
      </cc:Work>
    </rdf:RDF>
  </metadata>
  <defs
     id="defs839" />
  <sodipodi:namedview
     pagecolor="#ffffff"
     bordercolor="#666666"
     borderopacity="1"
     objecttolerance="10"
     gridtolerance="10"
     guidetolerance="10"
     inkscape:pageopacity="0"
     inkscape:pageshadow="2"
     inkscape:window-width="1920"
     inkscape:window-height="1017"
     id="namedview837"
     showgrid="false"
     fit-margin-top="0"
     fit-margin-left="0"
     fit-margin-right="0"
     fit-margin-bottom="0"
     inkscape:zoom="9.7329024"
     inkscape:cx="26.163635"
     inkscape:cy="29.090441"
     inkscape:window-x="-8"
     inkscape:window-y="-8"
     inkscape:window-maximized="1"
     inkscape:current-layer="svg835"
     showborder="false"
     inkscape:showpageshadow="false"
     inkscape:pagecheckerboard="true" />
  <path
     fill="none"
     stroke="#000000"
     stroke-linecap="round"
     stroke-linejoin="round"
     stroke-width="4"
     d="M 2,2 H 62 V 62 H 2 Z"
     id="path4"
     style="fill:#ffffff;fill-opacity:1;stroke-width:4;stroke-miterlimit:4;stroke-dasharray:none" />
  <path
     d="M 29.62,34.668 Q 27.172,34.084 23.608,34.084 12,34.08 12,28.52 q 0,-1.828 1.12,-3.144 1.188,-1.388 3.632,-1.388 2.728,0 6.924,3.288 4.2,3.292 6.784,4.388 -0.28,-3 -1.816,-7.384 -1.472,-4.46 -1.472,-6.436 0,-2.412 1.192,-4.096 Q 29.62,12 31.508,12 q 4.76,0 4.688,5.264 0,2.12 -1.332,7.312 -1.256,5.12 -1.4,7.24 2.732,-1.172 6.856,-4.46 4.2,-3.364 6.784,-3.364 2.588,0 3.708,1.536 1.188,1.46 1.188,3 0,5.556 -9.932,5.556 -4.404,0 -7.832,0.584 1.748,1.972 4.964,4.312 3.288,2.268 5.108,4.172 1.816,1.828 1.816,4.532 0,1.976 -1.328,3.144 Q 43.536,52 41.928,52 q -2.448,0 -4.124,-2.34 -1.608,-2.416 -3.288,-6.8 -1.608,-4.464 -2.728,-6.44 -0.98,1.976 -2.728,6.656 -1.748,4.608 -3.356,6.8 -1.536,2.12 -3.984,2.12 -1.888,0 -3.008,-1.24 -1.12,-1.32 -1.12,-2.924 0,-2.852 1.82,-4.756 1.888,-1.972 5.176,-4.096 3.284,-2.192 5.032,-4.312 z"
     aria-label="*"
     font-family="'Linux Libertine'"
     font-size="36px"
     id="path6"
     style="stroke-width:1;stroke-miterlimit:4;stroke-dasharray:none" />
</svg>
